<svg xmlns="http://www.w3.org/2000/svg" style="display:none"><symbol id="icon-arrow--bottom" viewBox="0 0 34.32 56.15"><title>icon-arrow--bottom</title><path d="M34.32 39L17.16 56.15 0 39l1.42-1.42 14.75 14.76V0h2v52.32L32.9 37.58 34.32 39z"/></symbol><symbol id="icon-arrow--left" viewBox="0 0 56.16 34.32"><title>icon-arrow--left</title><path d="M56.16 18.17H3.84L18.58 32.9l-1.42 1.42L0 17.16 17.16 0l1.42 1.42L3.82 16.17h52.34v2z"/></symbol><symbol id="icon-arrow--right" viewBox="0 0 56.15 34.32"><title>icon-arrow--right</title><path d="M56.15 17.16L39 34.32l-1.42-1.42 14.76-14.75H0v-2h52.32L37.58 1.42 39 0l17.15 17.16z"/></symbol><symbol id="icon-arrow" viewBox="0 0 19.6 11.21"><title>icon-arrow</title><path d="M18.19 11.21L9.8 2.83l-8.39 8.38L0 9.8 9.8 0l9.8 9.8-1.41 1.41z"/></symbol><symbol id="icon-arrows" viewBox="0 0 58.76 11.64"><title>icon-arrows</title><path d="M20.88 6.46H2.4l4.3 4.3-.88.88L0 5.82 5.82 0l.88.88-4.33 4.33h18.51v1.25zM58.76 5.82l-5.81 5.82-.88-.88 4.31-4.32h-18.5V5.19h18.49L52.07.88l.88-.88 5.81 5.82z"/></symbol><symbol id="icon-circle" viewBox="0 0 21.54 21.54"><title>icon-circle</title><path d="M0 10.77a10.77 10.77 0 1 1 10.77 10.77A10.77 10.77 0 0 1 0 10.77z"/></symbol><symbol id="icon-close" viewBox="0 0 22.63 22.63"><title>icon-close</title><path d="M12.73 11.32l9.9 9.9-1.42 1.41-9.9-9.9-9.9 9.9L0 21.22l9.9-9.9L0 1.42 1.41 0l9.9 9.9 9.9-9.9 1.42 1.42-9.9 9.9z"/></symbol><symbol id="icon-logo" viewBox="0 0 92.4 21.54"><title>logo</title><path d="M0 10.77a10.77 10.77 0 1 1 10.77 10.77A10.77 10.77 0 0 1 0 10.77zM35.28 21.54V0h21.54v21.54zM81.18 0l-5.6 10.77L70 21.54h22.4l-5.61-10.77z"/></symbol><symbol id="icon-marker" viewBox="0 0 25.01 33.19"><title>icon-marker</title><path d="M24.94 11.24a12.59 12.59 0 0 0-3.6-7.58 12.51 12.51 0 0 0-17.68 0 12.5 12.5 0 0 0-1.6 15.72l9.86 13.52a.72.72 0 0 0 1.16 0l9.84-13.49a12.54 12.54 0 0 0 2.02-8.17zM12.5 16.72a5.11 5.11 0 1 1 5.11-5.11 5.13 5.13 0 0 1-5.11 5.11z"/></symbol><symbol id="icon-mute" viewBox="0 0 23.46 31.76"><title>icon-mute</title><path d="M8.73 8.2H0v15.15h8.73l14.73 8.41V0zm-.37 14.15H1V9.2h7.36zM22.46 30l-13.1-7.44V9l13.1-7.3z"/></symbol><symbol id="icon-square" viewBox="0 0 21.54 21.54"><title>icon-square</title><path d="M0 21.54V0h21.54v21.54z"/></symbol><symbol id="icon-triangle" viewBox="0 0 22.43 21.54"><title>icon-triangle</title><path d="M11.21 0l-5.6 10.77L.03 21.54h22.4l-5.61-10.77z"/></symbol></svg>